<svg width="15" height="15" viewBox="0 0 15 15" fill="none" xmlns="http://www.w3.org/2000/svg">
<path d="M13.2546 5.96875C12.9421 5.65625 12.4734 5.6875 12.1609 5.96875L8.59837 9.75V0.75C8.59837 0.34375 8.25462 0 7.84837 0H6.84837C6.41087 0 6.09837 0.34375 6.09837 0.75V9.75L2.50462 5.96875C2.19212 5.6875 1.72337 5.65625 1.41087 5.96875L0.723374 6.65625C0.442124 6.9375 0.442124 7.4375 0.723374 7.71875L6.81712 13.7812C7.09837 14.0938 7.56712 14.0938 7.87962 13.7812L13.9421 7.71875C14.2234 7.4375 14.2234 6.96875 13.9421 6.65625L13.2546 5.96875Z" fill="#5A7184"/>
</svg>
