<svg width="155" height="177" viewBox="0 0 155 177" fill="none" xmlns="http://www.w3.org/2000/svg">
<path id="Pattern" opacity="0.1" fill-rule="evenodd" clip-rule="evenodd" d="M153.42 4.5C153.42 6.98528 151.405 9 148.918 9C146.432 9 144.417 6.98528 144.417 4.5C144.417 2.01472 146.432 0 148.918 0C151.405 0 153.42 2.01472 153.42 4.5ZM148.918 33C151.405 33 153.42 30.9853 153.42 28.5C153.42 26.0147 151.405 24 148.918 24C146.432 24 144.417 26.0147 144.417 28.5C144.417 30.9853 146.432 33 148.918 33ZM153.42 52.5C153.42 54.9853 151.405 57 148.918 57C146.432 57 144.417 54.9853 144.417 52.5C144.417 50.0147 146.432 48 148.918 48C151.405 48 153.42 50.0147 153.42 52.5ZM148.918 81C151.405 81 153.42 78.9853 153.42 76.5C153.42 74.0147 151.405 72 148.918 72C146.432 72 144.417 74.0147 144.417 76.5C144.417 78.9853 146.432 81 148.918 81ZM153.42 100.5C153.42 102.985 151.405 105 148.918 105C146.432 105 144.417 102.985 144.417 100.5C144.417 98.0147 146.432 96 148.918 96C151.405 96 153.42 98.0147 153.42 100.5ZM148.918 129C151.405 129 153.42 126.985 153.42 124.5C153.42 122.015 151.405 120 148.918 120C146.432 120 144.417 122.015 144.417 124.5C144.417 126.985 146.432 129 148.918 129ZM153.42 148.5C153.42 150.985 151.405 153 148.918 153C146.432 153 144.417 150.985 144.417 148.5C144.417 146.015 146.432 144 148.918 144C151.405 144 153.42 146.015 153.42 148.5ZM4.86717 177C7.35333 177 9.36877 174.985 9.36877 172.5C9.36877 170.015 7.35333 168 4.86717 168C2.381 168 0.36557 170.015 0.36557 172.5C0.36557 174.985 2.381 177 4.86717 177ZM33.3774 172.5C33.3774 174.985 31.3619 177 28.8758 177C26.3896 177 24.3742 174.985 24.3742 172.5C24.3742 170.015 26.3896 168 28.8758 168C31.3619 168 33.3774 170.015 33.3774 172.5ZM52.8843 177C55.3705 177 57.3859 174.985 57.3859 172.5C57.3859 170.015 55.3705 168 52.8843 168C50.3981 168 48.3827 170.015 48.3827 172.5C48.3827 174.985 50.3981 177 52.8843 177ZM81.3944 172.5C81.3944 174.985 79.379 177 76.8928 177C74.4067 177 72.3912 174.985 72.3912 172.5C72.3912 170.015 74.4067 168 76.8928 168C79.379 168 81.3944 170.015 81.3944 172.5ZM100.901 177C103.388 177 105.403 174.985 105.403 172.5C105.403 170.015 103.388 168 100.901 168C98.4152 168 96.3997 170.015 96.3997 172.5C96.3997 174.985 98.4152 177 100.901 177ZM129.411 172.5C129.411 174.985 127.396 177 124.91 177C122.424 177 120.408 174.985 120.408 172.5C120.408 170.015 122.424 168 124.91 168C127.396 168 129.411 170.015 129.411 172.5ZM153.42 172.5C153.42 174.985 151.405 177 148.918 177C146.432 177 144.417 174.985 144.417 172.5C144.417 170.015 146.432 168 148.918 168C151.405 168 153.42 170.015 153.42 172.5ZM124.91 153C127.396 153 129.411 150.985 129.411 148.5C129.411 146.015 127.396 144 124.91 144C122.424 144 120.408 146.015 120.408 148.5C120.408 150.985 122.424 153 124.91 153ZM105.403 148.5C105.403 150.985 103.388 153 100.901 153C98.4152 153 96.3997 150.985 96.3997 148.5C96.3997 146.015 98.4152 144 100.901 144C103.388 144 105.403 146.015 105.403 148.5ZM76.8928 153C79.379 153 81.3944 150.985 81.3944 148.5C81.3944 146.015 79.379 144 76.8928 144C74.4067 144 72.3912 146.015 72.3912 148.5C72.3912 150.985 74.4067 153 76.8928 153ZM57.3859 148.5C57.3859 150.985 55.3705 153 52.8843 153C50.3981 153 48.3827 150.985 48.3827 148.5C48.3827 146.015 50.3981 144 52.8843 144C55.3705 144 57.3859 146.015 57.3859 148.5ZM28.8758 153C31.3619 153 33.3774 150.985 33.3774 148.5C33.3774 146.015 31.3619 144 28.8758 144C26.3896 144 24.3742 146.015 24.3742 148.5C24.3742 150.985 26.3896 153 28.8758 153ZM9.36877 148.5C9.36877 150.985 7.35333 153 4.86717 153C2.381 153 0.36557 150.985 0.36557 148.5C0.36557 146.015 2.381 144 4.86717 144C7.35333 144 9.36877 146.015 9.36877 148.5ZM129.411 124.5C129.411 126.985 127.396 129 124.91 129C122.424 129 120.408 126.985 120.408 124.5C120.408 122.015 122.424 120 124.91 120C127.396 120 129.411 122.015 129.411 124.5ZM100.901 129C103.388 129 105.403 126.985 105.403 124.5C105.403 122.015 103.388 120 100.901 120C98.4152 120 96.3997 122.015 96.3997 124.5C96.3997 126.985 98.4152 129 100.901 129ZM81.3944 124.5C81.3944 126.985 79.379 129 76.8928 129C74.4067 129 72.3912 126.985 72.3912 124.5C72.3912 122.015 74.4067 120 76.8928 120C79.379 120 81.3944 122.015 81.3944 124.5ZM52.8843 129C55.3705 129 57.3859 126.985 57.3859 124.5C57.3859 122.015 55.3705 120 52.8843 120C50.3981 120 48.3827 122.015 48.3827 124.5C48.3827 126.985 50.3981 129 52.8843 129ZM33.3774 124.5C33.3774 126.985 31.3619 129 28.8758 129C26.3896 129 24.3742 126.985 24.3742 124.5C24.3742 122.015 26.3896 120 28.8758 120C31.3619 120 33.3774 122.015 33.3774 124.5ZM4.86717 129C7.35333 129 9.36877 126.985 9.36877 124.5C9.36877 122.015 7.35333 120 4.86717 120C2.381 120 0.36557 122.015 0.36557 124.5C0.36557 126.985 2.381 129 4.86717 129ZM124.91 105C127.396 105 129.411 102.985 129.411 100.5C129.411 98.0147 127.396 96 124.91 96C122.424 96 120.408 98.0147 120.408 100.5C120.408 102.985 122.424 105 124.91 105ZM105.403 100.5C105.403 102.985 103.388 105 100.901 105C98.4152 105 96.3997 102.985 96.3997 100.5C96.3997 98.0147 98.4152 96 100.901 96C103.388 96 105.403 98.0147 105.403 100.5ZM76.8928 105C79.379 105 81.3944 102.985 81.3944 100.5C81.3944 98.0147 79.379 96 76.8928 96C74.4067 96 72.3912 98.0147 72.3912 100.5C72.3912 102.985 74.4067 105 76.8928 105ZM57.3859 100.5C57.3859 102.985 55.3705 105 52.8843 105C50.3981 105 48.3827 102.985 48.3827 100.5C48.3827 98.0147 50.3981 96 52.8843 96C55.3705 96 57.3859 98.0147 57.3859 100.5ZM28.8758 105C31.3619 105 33.3774 102.985 33.3774 100.5C33.3774 98.0147 31.3619 96 28.8758 96C26.3896 96 24.3742 98.0147 24.3742 100.5C24.3742 102.985 26.3896 105 28.8758 105ZM9.36877 100.5C9.36877 102.985 7.35333 105 4.86717 105C2.381 105 0.36557 102.985 0.36557 100.5C0.36557 98.0147 2.381 96 4.86717 96C7.35333 96 9.36877 98.0147 9.36877 100.5ZM129.411 76.5C129.411 78.9853 127.396 81 124.91 81C122.424 81 120.408 78.9853 120.408 76.5C120.408 74.0147 122.424 72 124.91 72C127.396 72 129.411 74.0147 129.411 76.5ZM100.901 81C103.388 81 105.403 78.9853 105.403 76.5C105.403 74.0147 103.388 72 100.901 72C98.4152 72 96.3997 74.0147 96.3997 76.5C96.3997 78.9853 98.4152 81 100.901 81ZM81.3944 76.5C81.3944 78.9853 79.379 81 76.8928 81C74.4067 81 72.3912 78.9853 72.3912 76.5C72.3912 74.0147 74.4067 72 76.8928 72C79.379 72 81.3944 74.0147 81.3944 76.5ZM52.8843 81C55.3705 81 57.3859 78.9853 57.3859 76.5C57.3859 74.0147 55.3705 72 52.8843 72C50.3981 72 48.3827 74.0147 48.3827 76.5C48.3827 78.9853 50.3981 81 52.8843 81ZM33.3774 76.5C33.3774 78.9853 31.3619 81 28.8758 81C26.3896 81 24.3742 78.9853 24.3742 76.5C24.3742 74.0147 26.3896 72 28.8758 72C31.3619 72 33.3774 74.0147 33.3774 76.5ZM4.86717 81C7.35333 81 9.36877 78.9853 9.36877 76.5C9.36877 74.0147 7.35333 72 4.86717 72C2.381 72 0.36557 74.0147 0.36557 76.5C0.36557 78.9853 2.381 81 4.86717 81ZM124.91 57C127.396 57 129.411 54.9853 129.411 52.5C129.411 50.0147 127.396 48 124.91 48C122.424 48 120.408 50.0147 120.408 52.5C120.408 54.9853 122.424 57 124.91 57ZM105.403 52.5C105.403 54.9853 103.388 57 100.901 57C98.4152 57 96.3997 54.9853 96.3997 52.5C96.3997 50.0147 98.4152 48 100.901 48C103.388 48 105.403 50.0147 105.403 52.5ZM76.8928 57C79.379 57 81.3944 54.9853 81.3944 52.5C81.3944 50.0147 79.379 48 76.8928 48C74.4067 48 72.3912 50.0147 72.3912 52.5C72.3912 54.9853 74.4067 57 76.8928 57ZM57.3859 52.5C57.3859 54.9853 55.3705 57 52.8843 57C50.3981 57 48.3827 54.9853 48.3827 52.5C48.3827 50.0147 50.3981 48 52.8843 48C55.3705 48 57.3859 50.0147 57.3859 52.5ZM28.8758 57C31.3619 57 33.3774 54.9853 33.3774 52.5C33.3774 50.0147 31.3619 48 28.8758 48C26.3896 48 24.3742 50.0147 24.3742 52.5C24.3742 54.9853 26.3896 57 28.8758 57ZM9.36877 52.5C9.36877 54.9853 7.35333 57 4.86717 57C2.381 57 0.36557 54.9853 0.36557 52.5C0.36557 50.0147 2.381 48 4.86717 48C7.35333 48 9.36877 50.0147 9.36877 52.5ZM129.411 28.5C129.411 30.9853 127.396 33 124.91 33C122.424 33 120.408 30.9853 120.408 28.5C120.408 26.0147 122.424 24 124.91 24C127.396 24 129.411 26.0147 129.411 28.5ZM100.901 33C103.388 33 105.403 30.9853 105.403 28.5C105.403 26.0147 103.388 24 100.901 24C98.4152 24 96.3997 26.0147 96.3997 28.5C96.3997 30.9853 98.4152 33 100.901 33ZM81.3944 28.5C81.3944 30.9853 79.379 33 76.8928 33C74.4067 33 72.3912 30.9853 72.3912 28.5C72.3912 26.0147 74.4067 24 76.8928 24C79.379 24 81.3944 26.0147 81.3944 28.5ZM52.8843 33C55.3705 33 57.3859 30.9853 57.3859 28.5C57.3859 26.0147 55.3705 24 52.8843 24C50.3981 24 48.3827 26.0147 48.3827 28.5C48.3827 30.9853 50.3981 33 52.8843 33ZM33.3774 28.5C33.3774 30.9853 31.3619 33 28.8758 33C26.3896 33 24.3742 30.9853 24.3742 28.5C24.3742 26.0147 26.3896 24 28.8758 24C31.3619 24 33.3774 26.0147 33.3774 28.5ZM4.86717 33C7.35333 33 9.36877 30.9853 9.36877 28.5C9.36877 26.0147 7.35333 24 4.86717 24C2.381 24 0.36557 26.0147 0.36557 28.5C0.36557 30.9853 2.381 33 4.86717 33ZM124.91 9C127.396 9 129.411 6.98528 129.411 4.5C129.411 2.01472 127.396 0 124.91 0C122.424 0 120.408 2.01472 120.408 4.5C120.408 6.98528 122.424 9 124.91 9ZM105.403 4.5C105.403 6.98528 103.388 9 100.901 9C98.4152 9 96.3997 6.98528 96.3997 4.5C96.3997 2.01472 98.4152 0 100.901 0C103.388 0 105.403 2.01472 105.403 4.5ZM76.8928 9C79.379 9 81.3944 6.98528 81.3944 4.5C81.3944 2.01472 79.379 0 76.8928 0C74.4067 0 72.3912 2.01472 72.3912 4.5C72.3912 6.98528 74.4067 9 76.8928 9ZM57.3859 4.5C57.3859 6.98528 55.3705 9 52.8843 9C50.3981 9 48.3827 6.98528 48.3827 4.5C48.3827 2.01472 50.3981 0 52.8843 0C55.3705 0 57.3859 2.01472 57.3859 4.5ZM28.8758 9C31.3619 9 33.3774 6.98528 33.3774 4.5C33.3774 2.01472 31.3619 0 28.8758 0C26.3896 0 24.3742 2.01472 24.3742 4.5C24.3742 6.98528 26.3896 9 28.8758 9ZM9.36877 4.5C9.36877 6.98528 7.35333 9 4.86717 9C2.381 9 0.36557 6.98528 0.36557 4.5C0.36557 2.01472 2.381 0 4.86717 0C7.35333 0 9.36877 2.01472 9.36877 4.5Z" fill="#5A7184"/>
</svg>
